
<svg width="328px" height="374px" viewBox="0 0 328 374" version="1.1" xmlns="http://www.w3.org/2000/svg" xmlns:xlink="http://www.w3.org/1999/xlink">
    <defs>
        <radialGradient cx="60.2674233%" cy="13.7089687%" fx="60.2674233%" fy="13.7089687%" r="123.42057%" gradientTransform="translate(0.602674,0.137090),scale(1.000000,0.874997),rotate(90.000000),translate(-0.602674,-0.137090)" id="radialGradient-1">
            <stop stop-color="#DFDFDF" offset="0%"></stop>
            <stop stop-color="#646464" offset="100%"></stop>
        </radialGradient>
        <path d="M117.33,315.01 L117.33,315.66234 C117.33,347.79134 143.279,373.83034 175.361,373.99434 C181.8962,374.017777 187.33,368.86154 187.33,362.33034 L187.33,336.10334 C187.33,330.45494 189.3847,324.99434 193.0956,320.72434 L262.0216,241.97434 C266.4552,236.88844 272.8496,233.99384 279.5916,233.99384 L327.3296,233.99384 L327.3296,47.33384 L279.5206,47.33384 C272.544,47.33384 265.5906,46.28304 258.9186,44.25184 L195.4026,20.84984 C159.1876,7.50184 120.8986,0.66584 82.3326,0.66584 C63.0126,0.66584 47.3326,16.34584 47.3326,35.66584 C47.3326,39.91194 48.19588,43.92364 49.5982,47.70484 C28.7392,49.54864 12.3322,66.83784 12.3322,88.16584 C12.3322,98.92384 16.5783,108.62684 23.3712,115.93184 C9.9532,122.62714 0.6682,136.34984 0.6682,152.33384 C0.6682,168.33784 9.9534,182.06084 23.3712,188.75584 C14.0587,198.74414 9.5592,213.25584 14.1524,228.79484 C19.3086,246.13084 36.3204,257.33384 54.4254,257.33384 L140.6674,257.33384 L122.2574,294.12684 C119.0113,300.63854 117.3316,307.75584 117.3316,315.01384" id="path-2"></path>
    </defs>
    <g id="Preview" stroke="none" stroke-width="1" fill="none" fill-rule="evenodd">
        <g id="Artboard" transform="translate(-1020.000000, -247.000000)">
            <g id="noun-thumb-2286698-copy" transform="translate(1184.000000, 434.000000) rotate(-180.000000) translate(-1184.000000, -434.000000) translate(1020.000000, 247.000000)">
                <g id="Path" transform="translate(163.998900, 187.330130) rotate(-180.000000) translate(-163.998900, -187.330130) ">
                    <use fill="#D8D8D8" xlink:href="#path-2"></use>
                    <use fill="url(#radialGradient-1)" xlink:href="#path-2"></use>
                </g>
            </g>
        </g>
    </g>
</svg>