
<svg width="150px" height="28px" viewBox="0 0 150 28" version="1.1" xmlns="http://www.w3.org/2000/svg" xmlns:xlink="http://www.w3.org/1999/xlink">
    <g id="Preview" stroke="none" stroke-width="1" fill="none" fill-rule="evenodd">
        <g id="Artboard" transform="translate(-577.000000, -291.000000)" fill="#FFFFFF">
            <path d="M611.3,300.2 L611.3,297.7 L623.6,297.7 L623.6,300.2 L618.9,300.2 L618.9,312.4 L616,312.4 L616,300.2 L611.3,300.2 Z M635,303.6 L635,297.7 L638,297.7 L638,312.4 L635,312.4 L635,306.2 L628.6,306.2 L628.6,312.4 L625.6,312.4 L625.6,297.7 L628.6,297.7 L628.6,303.6 L635,303.6 Z M643.4,306.1 L643.4,309.9 L650.8,309.9 L650.8,312.4 L640.4,312.4 L640.4,297.7 L650.6,297.7 L650.6,300.2 L643.4,300.2 L643.4,303.7 L649.8,303.7 L649.8,306.1 L643.4,306.1 Z M666.9,304.7 C668.2,305.1 669.6,306.3 669.7,308.3 C669.7,310.7 667.8,312.3 665.3,312.3 L658.5,312.3 L658.5,297.6 L665,297.6 C667.5,297.6 669.1,299.2 669.1,301.3 C669.1,303.4 667.7,304.4 666.9,304.7 Z M664.5,310.1 C665.8,310.1 666.6,309.4 666.7,308.1 C666.7,306.7 665.8,306 664.4,306 L661.3,306 L661.3,310.1 L664.5,310.1 Z M661.3,300 L661.4,300 L661.4,303.8 L664.2,303.8 C665.5,303.8 666.2,303.1 666.2,301.9 C666.2,300.6 665.4,300 664.1,300 L661.3,300 Z M674.6,297.7 L674.6,309.8 L681.8,309.8 L681.8,312.4 L671.7,312.4 L671.7,297.7 L674.6,297.7 Z M689.8,297.6 C693.9,297.6 697.1,300.4 697.1,305 C697.1,309.6 694,312.5 689.8,312.5 C685.6,312.5 682.5,309.7 682.5,305.1 C682.5,300.5 685.6,297.6 689.8,297.6 Z M689.8,309.9 C692.2,309.9 694.1,308.1 694.1,305 C694.1,301.9 692.2,300.1 689.8,300.1 C687.4,300.1 685.5,301.9 685.5,305 C685.5,308.1 687.4,309.9 689.8,309.9 Z M705.7,300.1 C703.5,300.1 701.7,302 701.8,305 C701.8,308.1 703.5,309.9 705.8,309.9 C708.2,309.9 709.2,308.5 709.4,306.9 L712.3,306.9 C712,310.1 710,312.5 705.7,312.5 C701.7,312.5 698.8,309.6 698.8,305 C698.8,300.5 701.7,297.5 705.7,297.5 C709.9,297.5 712,299.9 712.3,303.1 L709.4,303.1 C709.1,301.5 708.1,300.1 705.7,300.1 Z M721.2,304 L727,312.4 L723.6,312.4 L719.2,306.1 L717.1,308.5 L717.1,312.4 L714.2,312.4 L714.2,297.7 L717.1,297.7 L717.1,305 L723.1,297.7 L726.6,297.7 L721.2,304 Z M589.4,318.4 L577.5,313.5 C577.1,313.3 577,313.3 577,312.8 L577,297 C577,296.6 577.1,296.5 577.5,296.3 L589.4,291.7 C589.8,291.6 589.9,291.6 590.3,291.7 L602.2,296.3 C602.6,296.5 602.7,296.6 602.7,297 L602.7,312.9 C602.7,313.3 602.6,313.4 602.2,313.6 L590.3,318.4 C589.9,318.5 589.8,318.6 589.4,318.4 Z M589.8,292.8 L579.1,296.9 L589.8,300.8 L600.5,296.9 L589.8,292.8 Z M578.4,311.9 L587.8,308.4 L586.1,307.7 C586,307.6 585.9,307.5 585.9,307.4 L585.9,302.5 C585.9,302.3 586,302.2 586.1,302.2 L587.8,301.5 L578.4,297.9 L578.4,311.9 Z M589.8,317.1 L600.2,313 L589.8,309.2 L579.4,312.9 L589.8,317.1 Z M601.2,311.9 L601.2,298 L591.8,301.5 L593.5,302.2 C593.6,302.3 593.7,302.4 593.7,302.5 L593.7,307.4 C593.7,307.5 593.6,307.7 593.5,307.7 L591.8,308.4 L601.2,311.9 Z M589.8,302 L587.2,303.1 L587.2,306.7 L589.8,307.8 L592.4,306.7 L592.4,303.1 L589.8,302 Z" id="Combined-Shape"></path>
        </g>
    </g>
</svg>