<?xml version="1.0" encoding="UTF-8"?>
<svg width="700pt" height="700pt" version="1.1" viewBox="0 0 700 700" xmlns="http://www.w3.org/2000/svg">
 <path d="m303.33 431.01v0.65234c0 32.129 25.949 58.168 58.031 58.332 6.5352 0.023437 11.969-5.1328 11.969-11.664v-26.227c0-5.6484 2.0547-11.109 5.7656-15.379l68.926-78.75c4.4336-5.0859 10.828-7.9805 17.57-7.9805h47.738v-186.66h-47.809c-6.9766 0-13.93-1.0508-20.602-3.082l-63.516-23.402c-36.215-13.348-74.504-20.184-113.07-20.184-19.32 0-35 15.68-35 35 0 4.2461 0.86328 8.2578 2.2656 12.039-20.859 1.8438-37.266 19.133-37.266 40.461 0 10.758 4.2461 20.461 11.039 27.766-13.418 6.6953-22.703 20.418-22.703 36.402 0 16.004 9.2852 29.727 22.703 36.422-9.3125 9.9883-13.812 24.5-9.2188 40.039 5.1562 17.336 22.168 28.539 40.273 28.539h86.242l-18.41 36.793c-3.2461 6.5117-4.9258 13.629-4.9258 20.887" fill-rule="evenodd"/>
</svg>
